<svg id="圖層_1" data-name="圖層 1" xmlns="http://www.w3.org/2000/svg" xmlns:xlink="http://www.w3.org/1999/xlink" viewBox="0 0 235.58 40"><defs><style>.cls-1{fill:#002f54;}</style></defs><image width="186" height="160" transform="scale(0.25)" xlink:href="C:%5CUsers%5Clihao%5CPictures%5CEpa_Logo_07_LOGO.gif"/><path class="cls-1" d="M69.46,4.81a15.22,15.22,0,0,1,.7,1.71,4.32,4.32,0,0,1,.25,1.36h-1.2a8,8,0,0,0-2.59-2,7.39,7.39,0,0,0-3-.59,4.48,4.48,0,0,0-3.27,1.21,6,6,0,0,0-1.69,4.56A7.18,7.18,0,0,0,59,13.52a5.71,5.71,0,0,0,1.19,1.91,4,4,0,0,0,1.44.89,6.72,6.72,0,0,0,2.46.45,6.17,6.17,0,0,0,2.79-.68,9.11,9.11,0,0,0,2.57-2A12.53,12.53,0,0,1,70.68,14a4.88,4.88,0,0,1-.17.79q0,.16-.3,1.26l-.12.3-.18.47a6.69,6.69,0,0,1-2.25.71,23.52,23.52,0,0,1-3.55.23,19.68,19.68,0,0,1-3-.23,9,9,0,0,1-4.8-2.29A5.47,5.47,0,0,1,55,13.38a5.63,5.63,0,0,1-.42-2.22,5.9,5.9,0,0,1,2.58-4.91,10.61,10.61,0,0,1,6.57-1.94c1.08,0,2.1,0,3.05.12A25.05,25.05,0,0,1,69.46,4.81Z" transform="translate(0 -0.94)"/><path class="cls-1" d="M72.07,4.6c.5,0,.93.05,1.3.09a23.89,23.89,0,0,0,2.39.11l2.43-.06q2.91-.09,5.28-.09l2.37,0c.53,0,1.31,0,2.35.15a.66.66,0,0,1,.24.54V7.38l0,.41s0,.1,0,.18l-.53,0-.45,0c-.08-.14-.18-.33-.31-.59l-.53-.71a4.64,4.64,0,0,0-.84-.92A3.69,3.69,0,0,0,85,5.67l-.8,0c-.82-.06-1.69-.08-2.62-.08s-2,0-2.86,0c0,.16,0,.82,0,2l0,1.68v1.25l.56,0c1.57,0,2.68,0,3.35-.07a4.1,4.1,0,0,0,1.23-.19,1.09,1.09,0,0,0,.42-.43,11.71,11.71,0,0,0,.46-1.47h.93c0,.59.05,1,.05,1.35,0,.7,0,1.14,0,1.34s0,.36,0,.47,0,.47,0,.87,0,.69,0,.88v.22h-.93c0-.1-.1-.32-.19-.66a3.55,3.55,0,0,0-.48-1.16,1,1,0,0,0-.52-.27,14.88,14.88,0,0,0-1.95-.07c-1.32,0-2.31,0-3,.08v.34c0,.8,0,1.46,0,2l0,2.16a.52.52,0,0,0,.36.52,13.7,13.7,0,0,0,3.28.21,19.2,19.2,0,0,0,3.09-.21A3.39,3.39,0,0,0,87,15.73a5,5,0,0,0,1.48-1.88l.67,0h.43q0,.26-.06.42l-.08.3-.48,1.89-.23,1.14-1.35,0c-.49,0-1.8,0-3.92-.1-1.5-.05-3.3-.07-5.4-.07-1.05,0-2.34,0-3.87.1h-.55l-1.59,0v-.69c.17,0,.5-.07,1-.11a8.22,8.22,0,0,0,1.89-.32,1.73,1.73,0,0,0,.14-.73c0-.11,0-.31,0-.58v-.31l0-3.77V10l-.06-1.6V7.22L74.83,6s0-.1,0-.2a.7.7,0,0,0-.4-.14L74,5.58a10.61,10.61,0,0,0-1.44-.14L72,5.4Z" transform="translate(0 -0.94)"/><path class="cls-1" d="M91.08,17.53l0-.68a4.76,4.76,0,0,0,2.09-.51,2.21,2.21,0,0,0,.44-1.25l.17-3.56L94,7.92c0-.22,0-.36,0-.4a3.27,3.27,0,0,0-.22-1.63,4.14,4.14,0,0,0-1.68-.43l-.58-.1a3.73,3.73,0,0,1,0-.42V4.63q.5,0,1.14,0l3.83.1.37,0,.6,0a2.76,2.76,0,0,1,.45.53c.32.49.75,1.2,1.28,2.14l.15.27,2,3.39c0,.08.12.19.21.35s.29.46.42.68.28.45.44.71l.43.69a4.43,4.43,0,0,0,.35-.53c.35-.61.69-1.17,1-1.69.57-.9,1.35-2.29,2.34-4.15.16-.3.42-.75.78-1.36a10.09,10.09,0,0,1,.6-.95.93.93,0,0,1,.47-.08h.4l1.64-.05c.91,0,1.65,0,2.2-.07l.94-.05.31,0c0,.09,0,.17,0,.22l0,.3c0,.06,0,.15,0,.27a8.77,8.77,0,0,0-2,.42c-.36.13-.53.3-.53.5v.15l.22,3.06c0,.28.1,1.66.21,4.16,0,.56.09,1.27.17,2.13a1.49,1.49,0,0,1,0,.25c0,.16,0,.26.14.31s.86.24,2.35.58c0,.11,0,.19,0,.24s0,.28,0,.42c-.24,0-.83,0-1.78-.11s-1.84-.12-2.67-.12c-1.27,0-2.5,0-3.7.12l-.46,0,0-.69a8.32,8.32,0,0,1,1.43-.27,1.35,1.35,0,0,0,.8-.27,2,2,0,0,0,.17-1.06c0-.22,0-.41,0-.58,0-.7-.07-1.67-.08-2.92L108,8.2a7.42,7.42,0,0,0-.09-1l-3.26,5.71-.35.58c-.21.33-.34.55-.41.67A29.31,29.31,0,0,0,102.5,17c-.07.17-.18.38-.32.65h-1l-.71-1.53c-.21-.4-.57-1-1.08-1.82-.29-.47-.52-.85-.69-1.15a3.17,3.17,0,0,1-.17-.27l-.16-.25a.3.3,0,0,0,0-.1l-2-3.2L95.19,7.32,95.08,12,95,15.11a1.38,1.38,0,0,0,.38,1.09,3.73,3.73,0,0,0,1.6.55l.63.12v.73c-.51,0-1,0-1.63-.08s-1.35-.08-2.31-.08Z" transform="translate(0 -0.94)"/><path class="cls-1" d="M126.19,4.89a5.09,5.09,0,0,1,.24,1,12.13,12.13,0,0,1,.16,1.6,1.43,1.43,0,0,1-.06.39l-.13,0-.94-.05-.16,0a4.82,4.82,0,0,0-1.15-1.79,4,4,0,0,0-4.38-.29A1.52,1.52,0,0,0,119,7.07a1.6,1.6,0,0,0,.74,1.23,8.71,8.71,0,0,0,3.12,1.13,18.61,18.61,0,0,1,1.93.57,6.28,6.28,0,0,1,1.73.87,4,4,0,0,1,1.08,1.2,3.19,3.19,0,0,1,.29,1.43,4,4,0,0,1-.46,1.85,2.78,2.78,0,0,1-.8.91,7.62,7.62,0,0,1-1.22.71,7,7,0,0,1-1.71.58,11.69,11.69,0,0,1-2.27.18,14.89,14.89,0,0,1-2.19-.2l-1.57-.35a3.07,3.07,0,0,1-.82-.25.31.31,0,0,1-.12-.19v-.11c0-.07,0-.53-.07-1.37,0-.43,0-.74,0-.92V14l1.22,0a12.86,12.86,0,0,0,.81,1.35,3.79,3.79,0,0,0,.89.82,4.49,4.49,0,0,0,1.17.51,5.83,5.83,0,0,0,1.48.18,6.2,6.2,0,0,0,1.56-.23,2.83,2.83,0,0,0,1.36-.76,1.56,1.56,0,0,0,.52-1.12,1.74,1.74,0,0,0-.9-1.37,12.2,12.2,0,0,0-3-1,17.12,17.12,0,0,1-3.34-1.16A4,4,0,0,1,117,9.75a3.09,3.09,0,0,1-.54-1.64A3.29,3.29,0,0,1,118,5.41a7.36,7.36,0,0,1,4.41-1.11,15.84,15.84,0,0,1,1.86.17A19.53,19.53,0,0,1,126.19,4.89Z" transform="translate(0 -0.94)"/><path class="cls-1" d="M151.24,3.89c.62,0,.94.12.94.27a2.24,2.24,0,0,1-.38,1.14,1,1,0,0,1-.88.45c-.62,0-1.69,0-3.22-.06l-3.7,0V9.6q4.31.09,10.67.63a2.8,2.8,0,0,1-.72,1.66,1.34,1.34,0,0,1-1,.57,14.14,14.14,0,0,1-2.06-.24c-2.36-.33-4.64-.51-6.84-.6v4.12a1.06,1.06,0,0,1-.49.86,2.24,2.24,0,0,1-1.28.26,2.79,2.79,0,0,1-1.35-.26.87.87,0,0,1-.45-.86V11.62a31,31,0,0,0-7.24,1.11,6.8,6.8,0,0,1-1.77.37,1.23,1.23,0,0,1-.86-.35.83.83,0,0,1-.41-.61c0-.62.38-1,1.16-1.11a31,31,0,0,1,9.12-1.41V5.69c-2.31,0-4.05.12-5.23.25-.75.08-1.24.12-1.48.12-.78,0-1.15-.27-1.15-.8a1,1,0,0,1,.54-1c.69-.33,4.15-.49,10.32-.49C146.52,3.75,149.12,3.81,151.24,3.89Zm-13.9,2.93a8.14,8.14,0,0,1,.27,1.65.84.84,0,0,1-1,.95A9.65,9.65,0,0,1,135,8.54c-.62-.29-.92-.58-.92-.86a1.21,1.21,0,0,1,.43-.86,2.09,2.09,0,0,1,1.34-.35C136.73,6.47,137.24,6.59,137.34,6.82Zm12.53-.21a1.41,1.41,0,0,1,.51,1c0,.37-.35.7-1,1a6.49,6.49,0,0,1-2.15.73c-.48,0-.72-.2-.72-.65a5.36,5.36,0,0,1,.7-1.94c.13-.35.59-.54,1.39-.54A2,2,0,0,1,149.87,6.61Z" transform="translate(0 -0.94)"/><path class="cls-1" d="M166.93,7.19c0,.32-.43.92-1.23,1.78a11,11,0,0,1-1.8,1.49v3.95a5.22,5.22,0,0,1-.29,2.13,1.54,1.54,0,0,1-1.48.63,2.74,2.74,0,0,1-2-1,4.92,4.92,0,0,0,.54-2.7V12.24a7,7,0,0,1-2.42.55c-.86,0-1.26-.26-1.26-.82a2.87,2.87,0,0,1,.94-1.82c.08.17.29.23.64.23a6.82,6.82,0,0,0,3-.92,15.75,15.75,0,0,0,3.52-2.36,1.61,1.61,0,0,1,1.1-.47C166.69,6.63,166.93,6.82,166.93,7.19Zm-.29-3.36c0,.29-.4.78-1.18,1.47a14.13,14.13,0,0,1-3.68,2.34,8.41,8.41,0,0,1-3.22.83c-.85,0-1.26-.24-1.26-.73A2.78,2.78,0,0,1,158.24,6c.08.12.3.16.65.16a7.12,7.12,0,0,0,2.78-.69,15,15,0,0,0,3.2-1.83,1.73,1.73,0,0,1,1-.34C166.37,3.28,166.64,3.46,166.64,3.83Zm14.67,4.95a2.7,2.7,0,0,1-.67,1.78,1.41,1.41,0,0,1-.91.31,14.24,14.24,0,0,1-1.8-.15c-.56-.08-1.07-.14-1.55-.18v3.77a2.31,2.31,0,0,1-1.59,2.23,11.71,11.71,0,0,1-4.4.63,1.85,1.85,0,0,1-1.31-.39,2.43,2.43,0,0,1-.67-1.92,10.73,10.73,0,0,0,3.94-.45,2.12,2.12,0,0,0,.46-1.56V10.38a15.52,15.52,0,0,0-4.05.57,7.67,7.67,0,0,1-1.29.22,1.45,1.45,0,0,1-.91-.28.94.94,0,0,1-.35-.74,1.1,1.1,0,0,1,.83-1c.67-.37,2.76-.57,6.3-.57C175.79,8.54,178.44,8.62,181.31,8.78ZM179,4.93c.38.05.56.13.56.25a2.13,2.13,0,0,1-.34,1.06.87.87,0,0,1-.81.39c-.38,0-1,0-1.85-.06l-2.63,0a26.72,26.72,0,0,0-4.45.27,6.31,6.31,0,0,1-.81.12c-.69,0-1-.27-1-.8a1.13,1.13,0,0,1,.4-1c.43-.25,2.49-.39,6.2-.39C176.05,4.79,177.66,4.85,179,4.93Z" transform="translate(0 -0.94)"/><path class="cls-1" d="M188.74,13.1c0,.16.06.24.22.24a6.48,6.48,0,0,0,1.53-.36,17.87,17.87,0,0,1,3.27-.76c.35,0,.53.14.53.41,0,.57-.91,1.27-2.71,2a13.63,13.63,0,0,1-5,1.15c-.86,0-1.26-.29-1.26-.88a7.38,7.38,0,0,1,.16-1.27c.06-.49.11-1.68.16-3.6,0-1.64,0-2.91-.1-3.79A11.06,11.06,0,0,1,185.39,5c0-.18.16-.38.48-.59a2.29,2.29,0,0,1,1.18-.29,3.16,3.16,0,0,1,1.32.23c.37.2.59.43.59.65,0,1,0,2,0,3h3.59a7.63,7.63,0,0,1,1.59.11.58.58,0,0,1,.4.61,1.32,1.32,0,0,1-.35.88,1.44,1.44,0,0,1-.91.33c-.27,0-.73,0-1.42-.06s-1.26,0-1.77,0c-.35,0-.75,0-1.18,0C188.82,10.91,188.8,12,188.74,13.1Zm17.73-6.37a1.47,1.47,0,0,1,.59,1c0,.43-.51.8-1.47,1.1a28.53,28.53,0,0,1-6.68.58,1.67,1.67,0,0,1-.32,0v.83c0,1.23.35,2,1.07,2.32a12.65,12.65,0,0,0,5.12,1.1c.78,0,1.61,0,2.5-.06a5.06,5.06,0,0,1-.91,2.41,2.07,2.07,0,0,1-1.51.62,17.83,17.83,0,0,1-6.92-2,4.16,4.16,0,0,1-2.6-4.05V5a1,1,0,0,1,.43-.88,2.12,2.12,0,0,1,1.15-.24c1.1,0,1.67.27,1.67.8V7.78A18.36,18.36,0,0,0,203.31,7a1.74,1.74,0,0,0,1.15-1A4.28,4.28,0,0,1,206.47,6.73Z" transform="translate(0 -0.94)"/><path class="cls-1" d="M216.53,3.69a.59.59,0,0,1,.41.55V6.8h1.26V4.24a.6.6,0,0,1,.29-.53,1.53,1.53,0,0,1,.86-.21,1.82,1.82,0,0,1,.86.19.59.59,0,0,1,.37.55l-.08,2.58c1,0,2,0,2.79.08.43,0,.65.08.65.2a1.6,1.6,0,0,1-.24.84,39.29,39.29,0,0,1,5.79-.26v-3a1,1,0,0,1,.43-.82A2.39,2.39,0,0,1,231,3.67a3,3,0,0,1,1,.18c.32.16.51.37.51.61v3.3c1,.06,2.07.14,3.14.22A2.38,2.38,0,0,1,235,9.56a1.15,1.15,0,0,1-.78.26,6.82,6.82,0,0,1-1.29-.16c-.18,0-.34-.06-.48-.08v3.93A2.61,2.61,0,0,1,230.75,16a10.17,10.17,0,0,1-4.4.88,1.65,1.65,0,0,1-1.18-.45,2.41,2.41,0,0,1-.59-1.72,12.28,12.28,0,0,0,4-.47c.59-.24.91-.57.91-1v-4a26.44,26.44,0,0,0-4.4.33,12.07,12.07,0,0,1-1.26.14,1.24,1.24,0,0,1-.75-.24.76.76,0,0,1-.3-.64.71.71,0,0,1,.17-.47h-.06c-.43,0-1.15,0-2.17-.1s-2.07-.06-3.09-.06a50.3,50.3,0,0,0-5.55.22,8.86,8.86,0,0,1-1,.09c-.56,0-.83-.21-.83-.64a.93.93,0,0,1,.3-.8,20.43,20.43,0,0,1,4.07-.28l-.08-2.58a.59.59,0,0,1,.3-.53,1.51,1.51,0,0,1,.86-.21A1.78,1.78,0,0,1,216.53,3.69Zm-3.3.83A6.19,6.19,0,0,1,213.48,6a.66.66,0,0,1-.76.73A8.08,8.08,0,0,1,211.3,6c-.53-.27-.77-.53-.77-.78a1,1,0,0,1,.34-.68,1.69,1.69,0,0,1,1-.26C212.7,4.24,213.13,4.34,213.23,4.52Zm1.85,4c.25.12.38.22.38.3a3.49,3.49,0,0,1-.21,1.15l2.54,0,1.91,0a6.28,6.28,0,0,1,0-1.07.38.38,0,0,1,.24-.34,1.6,1.6,0,0,1,.69-.13,1.5,1.5,0,0,1,.73.19c.21.12.32.24.32.37a1.94,1.94,0,0,1-.48,1l1.5.06c.38,0,.56.1.56.2a1.39,1.39,0,0,1-.24.76.62.62,0,0,1-.59.29h-3.7l0,.8q1.93,0,3.3.12c.35,0,.54.08.54.2a1.37,1.37,0,0,1-.3.8.67.67,0,0,1-.64.33h-2.92l0,.9,2.84-.23c.46,0,.89,0,1.26,0,.11,0,.19.11.19.31a.81.81,0,0,1-.19.61.9.9,0,0,1-.53.27q-3.82.43-6.2.78c-1.39.2-2.6.41-3.57.63a3.7,3.7,0,0,1-.61.13,1.11,1.11,0,0,1-.78-.31.61.61,0,0,1-.38-.57,1,1,0,0,1,.65-1c.4-.08,1.74-.2,4-.36a2.53,2.53,0,0,0,.41-.05l0-1.08c-1.18,0-2.09.1-2.71.18a3.92,3.92,0,0,1-.78.11c-.56,0-.83-.21-.83-.64a.93.93,0,0,1,.3-.8,17.56,17.56,0,0,1,4-.3l0-.8a29.3,29.3,0,0,0-3,.2,5,5,0,0,1-.89.11c-.56,0-.83-.21-.83-.64a.89.89,0,0,1,.32-.74,10.48,10.48,0,0,1,2.28-.24,2.66,2.66,0,0,1-.4-1,.52.52,0,0,1,.3-.45,1.67,1.67,0,0,1,.75-.19A1.91,1.91,0,0,1,215.08,8.56Zm9.21-4.06a.89.89,0,0,1,.4.68c0,.29-.3.53-.89.76a6,6,0,0,1-1.85.53c-.35,0-.51-.12-.51-.41a3.6,3.6,0,0,1,.62-1.45c.13-.25.56-.37,1.26-.37A1.76,1.76,0,0,1,224.29,4.5ZM228.15,11c0,.14-.19.41-.56.78a7,7,0,0,1-1.72,1.25,3.74,3.74,0,0,1-1.5.45c-.7,0-1.05-.21-1.05-.66a2.35,2.35,0,0,1,.72-1.43,1,1,0,0,0,.54.08,2.64,2.64,0,0,0,1.07-.28,5,5,0,0,0,1.24-.7.67.67,0,0,1,.4-.14C227.85,10.38,228.15,10.6,228.15,11Z" transform="translate(0 -0.94)"/><path class="cls-1" d="M72,23.49a.81.81,0,0,1,.34-.66,1.93,1.93,0,0,1,1-.22,3.08,3.08,0,0,1,1.1.2.71.71,0,0,1,.48.68v.22a28.67,28.67,0,0,1,4.37.19c.22.08.35.22.35.38a2.11,2.11,0,0,1-.13.56,2.05,2.05,0,0,0-.11.51c.37,0,.78,0,1.18,0a1.44,1.44,0,0,1-.27.76.57.57,0,0,1-.37.12c-.19,0-.43,0-.7,0-.06.33-.08.67-.14,1.06a.37.37,0,0,1-.4.33,7.54,7.54,0,0,1-.86,0q-.64-.09-3.06-.12l0,.63c3.24,0,5,.08,5.42.16s.4.17.4.33a.85.85,0,0,1-.14.35A6.33,6.33,0,0,0,80,30.5a.38.38,0,0,1-.41.33c-.21,0-.53,0-1,0a40.13,40.13,0,0,0-4.13-.12H74a.91.91,0,0,1-.19.49,59.09,59.09,0,0,1,7.11.47,1.77,1.77,0,0,1-.46,1.17,1,1,0,0,1-.58.18,11.7,11.7,0,0,1-1.72-.16L77,32.61A6.32,6.32,0,0,1,75.8,34a19.68,19.68,0,0,1,2,.54c.46.16.7.32.7.53,0,.53-.41.8-1.16.8a4.36,4.36,0,0,1-1.26-.29c-.64-.2-1.2-.39-1.74-.55a10.54,10.54,0,0,1-2.07.86,15.64,15.64,0,0,1-4,.47c-1.26,0-1.88-.21-1.88-.66a1.29,1.29,0,0,1,.3-.8,1.52,1.52,0,0,1,.75-.47c0,.13.08.19.24.21a5.62,5.62,0,0,0,1.32.1,8.87,8.87,0,0,0,2.79-.39A13.59,13.59,0,0,0,68.9,34c-.45,0-.67-.12-.67-.36s.19-.45.62-.93c-.38.07-.72.13-1,.21a12.6,12.6,0,0,1-1.66.22,1,1,0,0,1-.62-.18.51.51,0,0,1-.21-.45c0-.29.16-.49.51-.63a12.89,12.89,0,0,1,4.48-.66l.43-.41.1-.08c-1,0-1.87.1-2.57.16a7.3,7.3,0,0,1-1.07.11c-.38,0-.59-.11-.65-.33a8,8,0,0,0-.35-1.7,1.17,1.17,0,0,1,0-.37c0-.2.19-.31.59-.35.56-.08,2.33-.12,5.29-.14V27.5c-1.29,0-2.37.12-3.17.2a6.09,6.09,0,0,1-.94.1c-.32,0-.48-.1-.51-.32s-.08-.64-.11-.92a15.08,15.08,0,0,1-1.69.2.42.42,0,0,1-.29-.12.35.35,0,0,1-.11-.29.4.4,0,0,1,.3-.39,6.44,6.44,0,0,1,1.63-.41,6.79,6.79,0,0,0-.16-.77,2.14,2.14,0,0,1-.11-.58c0-.2.17-.3.54-.35s2-.12,4.62-.14Zm0,6.26V29c-1,0-1.8,0-2.37.08-.32,0-.48.06-.48.15,0,.43.06.63.22.63Zm0-4.48v-.58c-.84,0-1.48,0-1.94.09-.26,0-.37.06-.37.14v.41Zm0,1.29V26c-.81,0-1.56.11-2.23.17,0,.34.16.51.32.51Zm1.77,5.79-1.35,0-.85.69c0,.08.13.15.43.19.53.12,1,.2,1.5.28a5.13,5.13,0,0,0,1.28-1.14C74.43,32.37,74.11,32.35,73.79,32.35Zm.93-2.64c.81,0,1.67,0,2.53.08.1,0,.16-.06.21-.21,0,0,0-.16.11-.51a3.81,3.81,0,0,0-.38-.08H74.75Zm.11-3.17,1.69.06c.06,0,.08-.17.11-.54C76,26,75.4,26,74.86,26Zm.06-1.29,1.79,0a3.39,3.39,0,0,1,0-.52,2.44,2.44,0,0,0-.3-.08h-1.5ZM87.41,28a9.55,9.55,0,0,1-.64,3.8,15.71,15.71,0,0,0,3.57,1.89,2.41,2.41,0,0,1-.84,1.61,2.49,2.49,0,0,1-1.58.62,2,2,0,0,1-1.55-.72c-.41-.43-.78-.84-1.1-1.21a8.08,8.08,0,0,1-2,1.37,7.15,7.15,0,0,1-3.22.88c-.86,0-1.26-.2-1.26-.65a2.09,2.09,0,0,1,1.08-1.74c0,.1.18.14.5.14a4.41,4.41,0,0,0,3.28-1.41,1.12,1.12,0,0,0,.13-.16c-1.18-1.23-2.09-2.13-2.71-2.68-.32-.33-.48-.54-.48-.62,0-.41.37-.63,1.15-.63A2.57,2.57,0,0,1,83,29c.64.53,1.26,1,1.85,1.41a15.49,15.49,0,0,0,.48-2.55c0-.41.38-.64,1.05-.64S87.41,27.48,87.41,28Zm-3.32-4.63c.32.17.48.35.48.56A2.53,2.53,0,0,1,84.11,25c1,0,2.31,0,3.81,0a11,11,0,0,1,1.64.12.38.38,0,0,1,.37.43,1.76,1.76,0,0,1-.26.88.78.78,0,0,1-.7.33,10.05,10.05,0,0,1-1.24-.08c-.91,0-1.5-.08-1.79-.08-1.16,0-2.15,0-3,0-.86,1-1.61,1.47-2.22,1.47S80,28,80,27.8a.87.87,0,0,1,.18-.47,11.71,11.71,0,0,0,1.18-2.27,3.65,3.65,0,0,0,.33-1.35,1.27,1.27,0,0,0-.22-.55,5.91,5.91,0,0,1,1-.08A4.67,4.67,0,0,1,84.09,23.32Z" transform="translate(0 -0.94)"/><path class="cls-1" d="M95.89,25.63V23.79a.94.94,0,0,1,.4-.79,2.24,2.24,0,0,1,1.08-.25,3.24,3.24,0,0,1,1,.18c.32.17.51.37.51.64a3.7,3.7,0,0,0-.11.8v1.29c1.29,0,2,.08,2.28.12s.54.2.54.41a3.16,3.16,0,0,1-.19.82.66.66,0,0,1-.53.38c-.16,0-.54,0-1.1-.08l-1-.06v1.43a10.9,10.9,0,0,1,1.45-.16c.49,0,.75.27.75.8,0,.33-.4.59-1.2.8l-1,.24v2.56a2.69,2.69,0,0,1-1.2,2.41,5.5,5.5,0,0,1-3.09.86,1.6,1.6,0,0,1-1.18-.45,2.11,2.11,0,0,1-.62-1.63,5.61,5.61,0,0,0,2.63-.47,1.12,1.12,0,0,0,.62-1V31.14c-.7.2-1.29.39-1.82.55A2.82,2.82,0,0,1,93,32a1,1,0,0,1-.75-.29.74.74,0,0,1-.3-.59c0-.41.4-.76,1.26-1l2.71-.71V27.25c-.48,0-.91,0-1.29,0a6.86,6.86,0,0,1-1.12.1,1.72,1.72,0,0,1-1-.24.5.5,0,0,1-.37-.55.86.86,0,0,1,.53-.76,5.55,5.55,0,0,1,1.77-.21Zm13.2-3a1,1,0,0,1,.45.45h4.27a10.73,10.73,0,0,1,1.13.08c.16,0,.24.12.24.33a1.19,1.19,0,0,1-.19.61.48.48,0,0,1-.43.27,4.31,4.31,0,0,1-.91-.09c-.65,0-1.1-.08-1.32-.08-1,0-1.93,0-2.71.06v.49h.57c3.3,0,5.36.05,6.19.13.38.06.57.2.57.43s-.11.2-.27.39a5.08,5.08,0,0,0-1.39,1.94.92.92,0,0,1-.94.55c-.7,0-1-.12-1-.39a4.72,4.72,0,0,1,.62-1.61s-.22-.06-.62-.06h-4.21v.75l2.76-.1.91,0c.14,0,.22.08.22.25a.63.63,0,0,1-.14.43.84.84,0,0,1-.4.2l-3.35.16v.31c0,.12.21.18.7.23a28.87,28.87,0,0,0,3,.1c.33,0,.78,0,1.37-.08v.08a1.14,1.14,0,0,1-.24.73.85.85,0,0,1-.7.23,36.54,36.54,0,0,1-5.44-.29c-1.08-.14-1.59-.39-1.59-.75V28l-.83.08a2.12,2.12,0,0,1-.43,0,.5.5,0,0,1-.4-.16.33.33,0,0,1-.21-.31.6.6,0,0,1,.29-.57c.22,0,.73,0,1.58-.08v-.86H104a31.5,31.5,0,0,1-.29,4A1.05,1.05,0,0,1,104,30a27.56,27.56,0,0,1,6.17-.39c1.83,0,3.79.11,5.88.31a1.71,1.71,0,0,1-.35,1,.65.65,0,0,1-.48.19,8.93,8.93,0,0,1-1.42-.15,22.81,22.81,0,0,0-3.63-.34l-1,0a2.83,2.83,0,0,1-.59.61,11.74,11.74,0,0,1,2.12.53c.14.06.27.13.38.19a4.38,4.38,0,0,0,1.2-.53.42.42,0,0,0,.19-.33,3.43,3.43,0,0,1,1.26.35c.27.16.43.34.43.53s-.16.35-.45.51a8.65,8.65,0,0,1-.84.35,19.4,19.4,0,0,0,4.11,1,2.59,2.59,0,0,1-.83,1.53,1.89,1.89,0,0,1-1.16.37,10.15,10.15,0,0,1-3-1.43,2.83,2.83,0,0,1-.94,1.51,3.58,3.58,0,0,1-2.33.72,1.16,1.16,0,0,1-.94-.33,1.54,1.54,0,0,1-.43-1l-.32.16a5.66,5.66,0,0,1-2.31.66c-.27,0-.4-.08-.4-.25a1.2,1.2,0,0,1,.29-.71.44.44,0,0,0,.32.08,4.26,4.26,0,0,0,2.1-.74,11.44,11.44,0,0,0,2.38-1.84.55.55,0,0,1,.11-.1,2.92,2.92,0,0,1-.37-.17,7.42,7.42,0,0,1-.68.62,10.66,10.66,0,0,1-2.73,1.51,7.05,7.05,0,0,1-2.36.55c-.3,0-.43-.06-.43-.22a1.35,1.35,0,0,1,.32-.74c0,.06.13.08.3.08a5.17,5.17,0,0,0,2.17-.59A11.89,11.89,0,0,0,108.18,32c-.16,0-.33-.06-.46-.1h0a15.9,15.9,0,0,1-2.3,1.18,8.62,8.62,0,0,1-2.9.68.44.44,0,0,1-.16,0,3.1,3.1,0,0,1-2.44,1.61.85.85,0,0,1-.75-.32.86.86,0,0,1-.22-.64,2.89,2.89,0,0,1,.54-1.51.19.19,0,0,0,.21.14c.57,0,1.08-.39,1.5-1.17a13.32,13.32,0,0,0,.81-5.46v-1a.49.49,0,0,1,.27-.43,1.14,1.14,0,0,1,.67-.21,1.57,1.57,0,0,1,.45.08h2.88l-.09-1.35a.85.85,0,0,1,.46-.75,2.19,2.19,0,0,1,1.23-.29A2.77,2.77,0,0,1,109.09,22.63Zm-4,9.06a5.8,5.8,0,0,0,1.61-.9c-.42.06-.83.12-1.2.21a9.64,9.64,0,0,1-1.29.16.84.84,0,0,1-.54-.18c0-.05-.1-.09-.1-.15a7.24,7.24,0,0,1-.41,1.33A5.54,5.54,0,0,0,105.06,31.69Zm4.56,1.8a9.21,9.21,0,0,1-2.19,1.58,3.18,3.18,0,0,0,2.14-.47,2.14,2.14,0,0,0,.48-1.54v0A2.61,2.61,0,0,1,109.62,33.49Z" transform="translate(0 -0.94)"/><path class="cls-1" d="M129.77,25.74c.46,0,.7.14.7.3a3.36,3.36,0,0,1-.19.84c-.16.29-.35.43-.53.43s-.7,0-1.45,0c-1,0-2.36,0-4.16,0-.94,0-1.8,0-2.55.06a10.49,10.49,0,0,1-1.39.1,1.72,1.72,0,0,1-1-.24.51.51,0,0,1-.38-.55.86.86,0,0,1,.54-.76,5.55,5.55,0,0,1,1.77-.21C126.34,25.63,129.21,25.68,129.77,25.74Zm-.7,6.34c.43.08.68.21.68.35a1.16,1.16,0,0,1-.11.35,12.87,12.87,0,0,0-.62,2.39c-.05.31-.21.45-.43.45s-.59,0-1.07-.06l-3.35,0a13.29,13.29,0,0,0-2.07.12c-.59.08-1,.12-1.15.12s-.49-.1-.54-.34a9.57,9.57,0,0,0-.51-2.32,1.5,1.5,0,0,1-.21-.61c0-.2.26-.35.85-.43s1.94-.12,3.63-.12C126.69,32,128.32,32,129.07,32.08Zm.11-8.66c.38,0,.57.15.57.29a2.17,2.17,0,0,1-.17.7c-.16.24-.32.34-.48.34s-.54,0-1.15,0c-.78,0-1.91,0-3.36,0-.75,0-1.44,0-2.09.06a6.51,6.51,0,0,1-1.15.11,1.26,1.26,0,0,1-.83-.23.44.44,0,0,1-.32-.49c0-.24.16-.45.48-.61a4,4,0,0,1,1.53-.19C126.39,23.32,128.73,23.36,129.18,23.42ZM128.75,30c.38,0,.57.13.57.25a2.28,2.28,0,0,1-.14.57c-.11.21-.24.31-.37.31s-.57,0-1.18,0c-.78,0-1.91,0-3.36,0-.72,0-1.37,0-1.93.06a6.81,6.81,0,0,1-1.07.1,1.31,1.31,0,0,1-.78-.2c-.21-.06-.29-.21-.29-.45s.13-.35.4-.49a4,4,0,0,1,1.28-.15C126,30,128.3,30,128.75,30Zm-.08-1.92c.35,0,.54.12.54.25a2.18,2.18,0,0,1-.14.57c-.1.2-.24.31-.37.31s-.54,0-1.16,0-1.82-.05-3.21-.05c-.7,0-1.34,0-1.94.07a6,6,0,0,1-1,.1,1.15,1.15,0,0,1-.75-.21c-.22,0-.3-.18-.3-.43s.14-.36.41-.51A4.44,4.44,0,0,1,122,28C126,28,128.24,28.07,128.67,28.11Zm-2.06,6.24s0-.12.08-.37c0,0,0-.22,0-.67,0-.1-.08-.17-.21-.17h-3.35c-.16,0-.22.07-.22.17V34c0,.25,0,.37.11.37ZM135,24.2a.94.94,0,0,1,.4-.78,2.06,2.06,0,0,1,1.07-.26,2.54,2.54,0,0,1,1,.2,1,1,0,0,1,.56.92v3.2c1.77,0,3.65.08,5.64.16a2.52,2.52,0,0,1-.57,1.64,1.08,1.08,0,0,1-.77.28,11.42,11.42,0,0,1-1.53-.14,26.93,26.93,0,0,0-2.77-.31V34a2.28,2.28,0,0,1-.45,1.5,1.34,1.34,0,0,1-1.13.51,1.93,1.93,0,0,1-1.13-.31c-.32-.16-.45-.67-.45-1.53l0-5.06a21.68,21.68,0,0,0-2.63.35,11.94,11.94,0,0,1-1.28.14,1.26,1.26,0,0,1-.78-.22.81.81,0,0,1-.27-.65,1,1,0,0,1,.72-.88A17.3,17.3,0,0,1,135,27.5Z" transform="translate(0 -0.94)"/><path class="cls-1" d="M153.33,23.16a1,1,0,0,1-.14.41h5.26c.62,0,.94.1.94.31a1.54,1.54,0,0,1-.3.85.64.64,0,0,1-.53.35l-1-.14-1.74,0a4.79,4.79,0,0,1-.27,1.16.08.08,0,0,1,0,.07l2.69,0a1.16,1.16,0,0,1,.19-.21,8.83,8.83,0,0,0,1.79-1.68,1.87,1.87,0,0,0,.46-1,1.16,1.16,0,0,0-.22-.55,6.52,6.52,0,0,1,1.08-.08,4.67,4.67,0,0,1,1.61.24c.32.17.48.35.48.55s0,.09,0,.11l.62,0a59.73,59.73,0,0,1,6.12.3,2.28,2.28,0,0,1-.49,1.37,1.18,1.18,0,0,1-.78.31,7.34,7.34,0,0,1-1.52-.18l-1.27-.13a4.63,4.63,0,0,1-.29,1,.23.23,0,0,0-.05.1l1.18.08c.53,0,.8.14.8.27a23,23,0,0,0-1,4.4c-.05.32-.29.47-.75.47l-1-.06c-.38,0-.81,0-1.29-.05l0,.76c1.91.08,4,.23,6.39.39a3.26,3.26,0,0,1-.73,1.68,1.41,1.41,0,0,1-1.07.55,10,10,0,0,1-2-.31c-.92-.18-1.83-.34-2.71-.47l-.11,1.82a1,1,0,0,1-.43.8,2,2,0,0,1-1.15.25,2.23,2.23,0,0,1-1.18-.25.86.86,0,0,1-.41-.8l.06-2.14c-.91,0-1.8-.09-2.66-.09-.7,0-1.31,0-1.9,0a8.68,8.68,0,0,1-.46,1,4.7,4.7,0,0,1-2,1.88,6,6,0,0,1-2.55.55,2.73,2.73,0,0,1-1.23-.22.68.68,0,0,1-.46-.66,1.81,1.81,0,0,1,.86-1.45c0,.16.27.25.62.25a2.69,2.69,0,0,0,2-.72,1.59,1.59,0,0,0,.37-.51c-1.39.12-2.71.28-4,.51a10.34,10.34,0,0,1-1.77.25,1.28,1.28,0,0,1-.8-.33.74.74,0,0,1-.35-.55q0-.87,1.05-1a57.93,57.93,0,0,1,6.33-.55,5.19,5.19,0,0,1,.05-.68l-2.41.11a7.41,7.41,0,0,1-.84.08c-.48,0-.75-.27-.83-.8l-.61-4c0-.2.32-.35,1-.41,1.36-.06,2.73-.12,4.1-.16a.09.09,0,0,1-.05-.08,3.26,3.26,0,0,1-.54-1.17l-1.72.06a8.48,8.48,0,0,1-2.47,1.31,7.79,7.79,0,0,1-2.54.45,1,1,0,0,1-.67-.18.8.8,0,0,1-.19-.62,1.67,1.67,0,0,1,.86-1.51c0,.1.05.14.21.14a6.71,6.71,0,0,0,2.09-.41,13.22,13.22,0,0,0,3-1.41,1.19,1.19,0,0,1,.67-.25A.58.58,0,0,1,153.33,23.16Zm4.82,4.56c2,0,4.11.08,6.2.21l.08-.45c0-.06-.19-.11-.56-.15-1.13-.06-3-.1-5.56-.1-1.82,0-3.51,0-5.06.12-.6,0-.86.09-.86.13l0,.53A46.46,46.46,0,0,1,158.15,27.72Zm-.32,1.11c2.09,0,4.21.06,6.33.16l.08-.41c-2.14-.14-4.18-.22-6.09-.22a47.73,47.73,0,0,0-5.68.28l0,.51A38.44,38.44,0,0,1,157.83,28.83Zm.46,1.29h5.31c.21,0,.35,0,.4-.17l.05-.33c-2.19-.08-4.29-.14-6.22-.14a36.23,36.23,0,0,0-5.28.31l0,.24c0,.13.06.17.22.17C154.64,30.16,156.46,30.12,158.29,30.12Zm2.22,1.18h-2.22l-2,0c0,.25,0,.47,0,.66l2,0c.7,0,1.48,0,2.28,0Zm3.89-5.11s0,0,0,0a4.15,4.15,0,0,1-.43-1.07l-1.88,0a3.06,3.06,0,0,1-.38.31,6.21,6.21,0,0,1-1.15.72Z" transform="translate(0 -0.94)"/><path class="cls-1" d="M197.24,23.63a3.47,3.47,0,0,1-.78,1.8,1.4,1.4,0,0,1-1.13.61,9.5,9.5,0,0,1-2-.32,44.56,44.56,0,0,0-8.58-.88h-.11a1.61,1.61,0,0,1-1,1.22l-2.82,1.66c-.19.08-.27.17-.27.23s.33.3,1,.45l.21,0c1.69-.84,3.3-1.7,4.86-2.56a2.84,2.84,0,0,1,1.42-.49,1.52,1.52,0,0,1,.83.29.89.89,0,0,1,.43.67c0,.45-.43.88-1.26,1.33l-5.07,2.56,6.22.12c.14,0,.22-.08.22-.24-1-.82-1.48-1.35-1.48-1.6s.19-.49.62-.49a7.74,7.74,0,0,1,2.82,1.51c1.18.82,1.79,1.44,1.79,1.84s-.32.8-.93.8c-.22,0-.62,0-1.24-.08-.8,0-2-.06-3.67-.06h-.65v3a1.07,1.07,0,0,1-.48.86,2.26,2.26,0,0,1-1.29.26,2.72,2.72,0,0,1-1.34-.26.87.87,0,0,1-.45-.86V32c-1.78,0-3.14.06-4.11.14a5.2,5.2,0,0,1-1,.17c-.91,0-1.37-.23-1.37-.72s.43-.84,1.29-1.27l1.5-.74c-1-.28-1.82-.53-2.63-.73-.53-.1-.77-.29-.77-.53s.21-.58.69-.84L181.12,25a36.69,36.69,0,0,0-5.34.82,8.18,8.18,0,0,1-1.82.33,1.45,1.45,0,0,1-.94-.39.87.87,0,0,1-.41-.66c0-.65.41-1.06,1.24-1.2a62.09,62.09,0,0,1,11.32-.8Q189.71,23.08,197.24,23.63Zm-16.77,9.76c0,.49-.51,1-1.53,1.66a6.84,6.84,0,0,1-3.51,1.14c-.7,0-1.05-.36-1.05-1.12a1.38,1.38,0,0,1,.54-1.27c0,.1.13.14.4.14a10.52,10.52,0,0,0,3.6-.73A4.15,4.15,0,0,1,180,33,.38.38,0,0,1,180.47,33.39Zm11-.18a17.56,17.56,0,0,0,3.83,1.14,2.92,2.92,0,0,1-.85,1.33,1.79,1.79,0,0,1-1.13.35,3.74,3.74,0,0,1-2-.68c-1.28-.94-1.9-1.67-1.9-2.21,0-.2.13-.3.43-.3A4.9,4.9,0,0,1,191.5,33.21Z" transform="translate(0 -0.94)"/><path class="cls-1" d="M206.76,23.1a.78.78,0,0,1,.32.61,1.92,1.92,0,0,1-.85,1.35l-2.79,2.07c-.38.35-.57.57-.57.67s.16.33.54.52l.46.18c.8-.57,1.71-1.27,2.79-2.05a2.06,2.06,0,0,1,1.15-.49c.62,0,.94.27.94.8s-.3.84-.89,1.19l-4.34,2.88c0,.13,0,.17.21.17H207c.21,0,.32,0,.32-.17a3.8,3.8,0,0,1-.86-1.35c0-.2.22-.33.64-.33a3.48,3.48,0,0,1,1.8,1c.67.61,1,1.06,1,1.37,0,.53-.32.8-.94.8h-3.81c-1.61,0-2.89.06-3.86.14a3.91,3.91,0,0,1-.8.1.88.88,0,0,1-.59-.2.46.46,0,0,1-.27-.43c0-.25.35-.64,1-1.13,0,0,.43-.3,1.29-.94a16.75,16.75,0,0,0-2-.84c-.51-.14-.75-.33-.75-.53s.29-.61.88-1.1c0,0,1.26-1.15,3.84-3.44a3.61,3.61,0,0,1,2-1.15A1.27,1.27,0,0,1,206.76,23.1Zm-4.29,10.37a2.52,2.52,0,0,1-.72,1.52,2.64,2.64,0,0,1-1.69,1c-.49,0-.73-.27-.73-.8a1.07,1.07,0,0,1,.3-.88c0,.06.16.08.43.08.43,0,.94-.34,1.5-1,.21-.2.37-.33.48-.33A.38.38,0,0,1,202.47,33.47Zm2.52-.24c.27.16.4.28.4.41a7.61,7.61,0,0,1-.29,1.76,1,1,0,0,1-.86.55.67.67,0,0,1-.62-.41,5.59,5.59,0,0,1-.42-1.82.69.69,0,0,1,.26-.45,1.69,1.69,0,0,1,.78-.21A1.75,1.75,0,0,1,205,33.23Zm2.52.2a4.92,4.92,0,0,0,1.37,1.09,3.48,3.48,0,0,1,.62-.58c0,.17.21.25.62.25a2.52,2.52,0,0,0,1.93-.88,4.71,4.71,0,0,0,1-3,.62.62,0,0,1,.08-.31c-1.21.05-2,.09-2.31.15a3.79,3.79,0,0,1-.69.08,1.33,1.33,0,0,1-.65-.18.45.45,0,0,1-.19-.39c0-.21.41-.7,1.24-1.48l2.39-2.15c-.65.09-1.21.19-1.75.31a12.13,12.13,0,0,1-1.58.21.93.93,0,0,1-.67-.23.66.66,0,0,1-.27-.57.88.88,0,0,1,.64-.8,15.83,15.83,0,0,1,4.75-.51,1.77,1.77,0,0,0,.49-.78c0-.1-.17-.26-.43-.47a15,15,0,0,1,2.62-.24,8.13,8.13,0,0,1,1.94.16c.32.1.48.24.48.41a1.46,1.46,0,0,1-.54.88l5.66.06a2.07,2.07,0,0,1-.53,1.43,1,1,0,0,1-.73.25c-.37,0-.94,0-1.74-.08-.51-.05-1-.07-1.42-.11a14.47,14.47,0,0,1,1.77,1.31c1.07.94,1.61,1.66,1.61,2.17a.65.65,0,0,1-.27.53.89.89,0,0,1-.56.27,5.08,5.08,0,0,1-.86-.12,7.42,7.42,0,0,0-1.34-.13h0a1,1,0,0,1,.13.47.18.18,0,0,1-.08.15,4.89,4.89,0,0,0,0,.59,2,2,0,0,0,.67,1.62,7,7,0,0,0,3.72,1.41,3.12,3.12,0,0,1-1.1,1.57,2.07,2.07,0,0,1-1.31.52c-.59,0-1.64-.6-3.11-1.78a3.9,3.9,0,0,1-1.4-3.11v-1a.76.76,0,0,1,.16-.47H215.4a1.2,1.2,0,0,1,0,.33,6.35,6.35,0,0,1-.75,3.32,5.26,5.26,0,0,1-2.41,2.1,5.93,5.93,0,0,1-2.5.64c-.85,0-1.28-.21-1.34-.62a1.21,1.21,0,0,1-.64.15c-.27,0-.54-.19-.81-.6a4,4,0,0,1-.77-2c0-.27.16-.41.53-.41A1.48,1.48,0,0,1,207.51,33.43Zm8.29-6.87a14.67,14.67,0,0,0-2.33,2c0,.06.05.08.21.08h6c.13,0,.21,0,.21-.08l-1-1.31a2,2,0,0,1-.4-1.08.29.29,0,0,1,.05-.21c-.65,0-1.21,0-1.75,0h-.34A1.57,1.57,0,0,1,215.8,26.56Z" transform="translate(0 -0.94)"/></svg>